<?xml version="1.0" standalone="no"?><svg xmlns="http://www.w3.org/2000/svg" viewBox="0 0 1440 320"><path fill="#000033" fill-opacity="1" d="M0,96L26.7,96C53.3,96,107,96,160,106.7C213.3,117,267,139,320,165.3C373.3,192,427,224,480,208C533.3,192,587,128,640,117.3C693.3,107,747,149,800,144C853.3,139,907,85,960,69.3C1013.3,53,1067,75,1120,101.3C1173.3,128,1227,160,1280,186.7C1333.3,213,1387,235,1413,245.3L1440,256L1440,320L1413.3,320C1386.7,320,1333,320,1280,320C1226.7,320,1173,320,1120,320C1066.7,320,1013,320,960,320C906.7,320,853,320,800,320C746.7,320,693,320,640,320C586.7,320,533,320,480,320C426.7,320,373,320,320,320C266.7,320,213,320,160,320C106.7,320,53,320,27,320L0,320Z"></path></svg>